<?xml version="1.0" standalone="no"?><!DOCTYPE svg PUBLIC "-//W3C//DTD SVG 1.1//EN" "http://www.w3.org/Graphics/SVG/1.1/DTD/svg11.dtd"><svg class="icon" width="200px" height="200.00px" viewBox="0 0 1024 1024" version="1.1" xmlns="http://www.w3.org/2000/svg"><path fill="#e6e6e6" d="M465.454538 512 558.545462 512 558.545462 605.09091 465.454538 605.09091 465.454538 512ZM442.181821 651.636364 581.818179 651.636364C594.688 651.636364 605.090897 641.233454 605.090897 628.363636L605.090897 488.727272C605.090897 475.880728 594.688 465.454546 581.818179 465.454546L442.181821 465.454546C429.312 465.454546 418.909103 475.880728 418.909103 488.727272L418.909103 628.363636C418.909103 641.233454 429.312 651.636364 442.181821 651.636364L442.181821 651.636364ZM698.181821 744.727272 791.272717 744.727272 791.272717 837.841454 698.181821 837.841454 698.181821 744.727272ZM674.909103 884.363636 814.545462 884.363636C827.415283 884.363636 837.818179 873.960728 837.818179 861.09091L837.818179 721.454546C837.818179 708.608 827.415283 698.181818 814.545462 698.181818L674.909103 698.181818C662.039283 698.181818 651.636359 708.608 651.636359 721.454546L651.636359 861.09091C651.636359 873.960728 662.039283 884.363636 674.909103 884.363636L674.909103 884.363636ZM465.454538 279.272728 558.545462 279.272728 558.545462 372.363636 465.454538 372.363636 465.454538 279.272728ZM442.181821 418.90909 581.818179 418.90909C594.688 418.90909 605.090897 408.506182 605.090897 395.636364L605.090897 256C605.090897 243.153454 594.688 232.727272 581.818179 232.727272L442.181821 232.727272C429.312 232.727272 418.909103 243.153454 418.909103 256L418.909103 395.636364C418.909103 408.506182 429.312 418.90909 442.181821 418.90909L442.181821 418.90909ZM232.727283 744.727272 325.818179 744.727272 325.818179 837.841454 232.727283 837.841454 232.727283 744.727272ZM209.454538 884.363636 349.090897 884.363636C361.960717 884.363636 372.363641 873.960728 372.363641 861.09091L372.363641 721.454546C372.363641 708.608 361.960717 698.181818 349.090897 698.181818L209.454538 698.181818C196.584717 698.181818 186.181821 708.608 186.181821 721.454546L186.181821 861.09091C186.181821 873.960728 196.584717 884.363636 209.454538 884.363636L209.454538 884.363636ZM698.181821 512 791.272717 512 791.272717 605.09091 698.181821 605.09091 698.181821 512ZM674.909103 651.636364 814.545462 651.636364C827.415283 651.636364 837.818179 641.233454 837.818179 628.363636L837.818179 488.727272C837.818179 475.880728 827.415283 465.454546 814.545462 465.454546L674.909103 465.454546C662.039283 465.454546 651.636359 475.880728 651.636359 488.727272L651.636359 628.363636C651.636359 641.233454 662.039283 651.636364 674.909103 651.636364L674.909103 651.636364ZM232.727283 512 325.818179 512 325.818179 605.09091 232.727283 605.09091 232.727283 512ZM209.454538 651.636364 349.090897 651.636364C361.960717 651.636364 372.363641 641.233454 372.363641 628.363636L372.363641 488.727272C372.363641 475.880728 361.960717 465.454546 349.090897 465.454546L209.454538 465.454546C196.584717 465.454546 186.181821 475.880728 186.181821 488.727272L186.181821 628.363636C186.181821 641.233454 196.584717 651.636364 209.454538 651.636364L209.454538 651.636364ZM232.727283 279.272728 325.818179 279.272728 325.818179 372.363636 232.727283 372.363636 232.727283 279.272728ZM209.454538 418.90909 349.090897 418.90909C361.960717 418.90909 372.363641 408.506182 372.363641 395.636364L372.363641 256C372.363641 243.153454 361.960717 232.727272 349.090897 232.727272L209.454538 232.727272C196.584717 232.727272 186.181821 243.153454 186.181821 256L186.181821 395.636364C186.181821 408.506182 196.584717 418.90909 209.454538 418.90909L209.454538 418.90909ZM698.181821 279.272728 791.272717 279.272728 791.272717 372.363636 698.181821 372.363636 698.181821 279.272728ZM674.909103 418.90909 814.545462 418.90909C827.415283 418.90909 837.818179 408.506182 837.818179 395.636364L837.818179 256C837.818179 243.153454 827.415283 232.727272 814.545462 232.727272L674.909103 232.727272C662.039283 232.727272 651.636359 243.153454 651.636359 256L651.636359 395.636364C651.636359 408.506182 662.039283 418.90909 674.909103 418.90909L674.909103 418.90909ZM930.909103 93.090909 93.090897 93.090909 93.090897 46.545455 930.909103 46.545455 930.909103 93.090909ZM930.909103 977.454546 605.090897 977.454546 605.090897 721.454546C605.090897 708.608 594.688 698.181818 581.818179 698.181818L442.181821 698.181818C429.312 698.181818 418.909103 708.608 418.909103 721.454546L418.909103 977.454546 93.090897 977.454546 93.090897 139.636364 930.909103 139.636364 930.909103 977.454546ZM558.545462 977.454546 465.454538 977.454546 465.454538 744.727272 558.545462 744.727272 558.545462 977.454546ZM1000.727283 93.090909 977.454538 93.090909 977.454538 23.272727C977.454538 10.426182 967.051641 0 954.181821 0L69.818179 0C56.948359 0 46.545462 10.426182 46.545462 23.272727L46.545462 93.090909 23.272717 93.090909C10.402897 93.090909 0 103.517091 0 116.363636 0 129.233455 10.402897 139.636364 23.272717 139.636364L46.545462 139.636364 46.545462 1000.727272C46.545462 1013.59709 56.948359 1024 69.818179 1024L954.181821 1024C967.051641 1024 977.454538 1013.59709 977.454538 1000.727272L977.454538 139.636364 1000.727283 139.636364C1013.597103 139.636364 1024 129.233455 1024 116.363636 1024 103.517091 1013.597103 93.090909 1000.727283 93.090909L1000.727283 93.090909Z" /></svg>