<?xml version="1.0" standalone="no"?><!DOCTYPE svg PUBLIC "-//W3C//DTD SVG 1.1//EN" "http://www.w3.org/Graphics/SVG/1.1/DTD/svg11.dtd"><svg class="icon" width="200px" height="200.00px" viewBox="0 0 1024 1024" version="1.1" xmlns="http://www.w3.org/2000/svg"><path fill="#707070" d="M983.749632 312.687616c-25.749504-60.96896-62.624768-115.687424-109.687808-162.750464-47.062016-47.031296-101.812224-83.93728-162.811904-109.750272C648.187904 13.500416 581.12512 0 512 0S375.812096 13.500416 312.71936 40.187904c-60.93824 25.812992-115.719168 62.718976-162.781184 109.750272-46.968832 47.062016-83.93728 101.781504-109.687808 162.750464C13.500416 375.87456 0 442.87488 0 512s13.500416 136.187904 40.250368 199.312384c25.749504 60.939264 62.656512 115.689472 109.687808 162.751488 47.062016 46.938112 101.843968 83.938304 162.781184 109.687808C375.812096 1010.499584 442.87488 1024 512 1024s136.187904-13.500416 199.24992-40.250368c60.99968-25.749504 115.749888-62.624768 162.811904-109.687808 46.938112-47.062016 83.938304-101.812224 109.687808-162.751488C1010.438144 648.187904 1024 581.12512 1024 512S1010.438144 375.87456 983.749632 312.687616zM550.750208 511.218688l176.124928 176.219136-38.250496 38.311936L512.437248 549.562368 336.249856 725.74976l-38.34368-38.311936 176.219136-176.219136L297.906176 335.031296l38.34368-38.34368 176.187392 176.218112 176.188416-176.218112 38.375424 38.34368L550.750208 511.218688z" /></svg>