<?xml version="1.0" standalone="no"?><!DOCTYPE svg PUBLIC "-//W3C//DTD SVG 1.1//EN" "http://www.w3.org/Graphics/SVG/1.1/DTD/svg11.dtd"><svg t="1509359880633" class="icon" style="" viewBox="0 0 1024 1024" version="1.1" xmlns="http://www.w3.org/2000/svg" p-id="2358" xmlns:xlink="http://www.w3.org/1999/xlink" width="32" height="32"><defs><style type="text/css"></style></defs><path d="M308.3 577.4l181 181c12.5 12.5 32.8 12.5 45.3 0l181-181c12.5-12.5 12.5-32.8 0-45.3l0 0c-12.5-12.5-32.7-12.5-45.2 0L544 658.5 544 96c0-17.7-14.3-32-32-32l0 0c-17.7 0-32 14.3-32 32l0 562.5L353.6 532.1c-12.5-12.5-32.7-12.5-45.2 0l0 0C295.9 544.6 295.8 564.8 308.3 577.4z" p-id="2359" fill="#ffffff"></path><path d="M896 672l0 192c0 17.7-14.3 32-32 32L160 896c-17.7 0-32-14.3-32-32L128 672c0-17.7-14.3-32-32-32l0 0c-17.7 0-32 14.3-32 32l0 224c0 35.3 28.7 64 64 64l768 0c35.3 0 64-28.7 64-64L960 672c0-17.7-14.3-32-32-32l0 0C910.3 640 896 654.3 896 672z" p-id="2360" fill="#ffffff"></path></svg>