<?xml version="1.0" standalone="no"?><!DOCTYPE svg PUBLIC "-//W3C//DTD SVG 1.1//EN" "http://www.w3.org/Graphics/SVG/1.1/DTD/svg11.dtd"><svg class="icon" width="200px" height="200.00px" viewBox="0 0 1024 1024" version="1.1" xmlns="http://www.w3.org/2000/svg"><path fill="#e6e6e6" d="M951.848215 366.341572c-0.064468-0.484024-0.157589-0.937348-0.25685-1.323135-0.38988-1.87879-0.907673-3.690042-1.647523-5.432733l-75.806523-188.705849c-13.131065-39.131229-50.836829-63.125713-94.946442-63.222927L247.101329 107.656929c-44.693922 0-79.422887 23.77038-92.006484 61.34823l-81.496106 192.549388c-0.384763 1.134847-0.810459 2.812045-1.164522 4.5312-5.91778 18.172895-8.892531 36.830837-8.892531 55.558363 0.064468 65.842591 36.186154 125.96183 94.237291 156.911726 0 0 0 0.033769 0.033769 0.033769 0.028653 0 0.028653 0 0.028653 0.029676l0 0c0 0 0.034792 0 0.034792 0.034792 23.899316 12.740162 52.001351 19.205411 83.661422 19.205411 53.067636-0.157589 102.227266-23.473621 135.729288-63.384609 33.342386 39.585577 82.112136 62.738903 135.084605 63.064314 52.549843-0.418532 101.19168-23.671119 134.372384-63.221904 33.506115 39.905872 82.725096 63.124689 136.052652 63.124689 32.278147-0.158612 60.928674-6.953366 85.054141-20.178575 57.177234-31.240515 92.65219-91.133603 92.623537-156.299789C960.548364 402.2412 957.478446 383.450229 951.848215 366.341572L951.848215 366.341572zM836.880787 520.504698c-14.650675 8.024767-32.91976 12.130272-54.168714 12.258185-39.388079 0-75.287707-19.984147-96.245018-53.91084-1.485841-3.202948-3.977591-8.502651-8.631588-13.615089-5.339612-5.980201-15.040555-13.062504-31.014364-13.062504-12.874215 0-24.545022 5.270027-31.143301 13.353123-4.367471 4.915963-6.759961 9.800203-8.471952 13.359262-20.701484 33.499975-56.305377 53.683666-94.89016 53.974285-39.062668-0.227174-74.769914-20.340257-95.594195-54.103222-1.455141-2.974751-3.883447-7.988951-7.662517-12.227486-15.20326-18.140149-49.224098-17.202801-62.483076-1.390673-4.880147 5.337565-7.436366 10.707876-9.084912 14.359033-20.892843 33.506115-56.822147 53.589522-96.017844 53.718459-20.893866 0-38.777165-3.913123-53.201689-11.611455l-0.028653 0-0.033769 0c-36.996612-19.694551-59.991326-57.986669-60.021002-99.896174 0-12.386098 2.067079-24.87248 6.207375-37.031405 0.290619-0.873903 0.547469-1.840928 0.774643-2.845815l80.267115-189.767018c1.647523-4.850471 6.632047-19.630083 31.595602-19.630083l532.247136 0c10.254551 0.611937 27.910677 2.422166 34.18252 20.887726l75.15877 187.151447c0.291642 1.357927 0.64673 2.65548 0.972141 3.721765 4.169973 12.192693 6.238075 24.579815 6.238075 36.865629C895.904065 462.488353 873.298208 500.582973 836.880787 520.504698L836.880787 520.504698zM861.134167 624.285343c-17.883299 0-32.337499 14.4542-32.337499 32.337499l0.064468 176.448688c0 10.022261-8.181333 18.173918-18.173918 18.203594l-608.473215 0.38988c-10.026354 0-18.172895-8.082072-18.172895-18.046005l-0.228197-173.403329c-0.033769-17.853623-14.522762-32.278147-32.341592-32.278147l-0.063445 0c-17.84953 0.034792-32.308847 14.522762-32.273031 32.406061l0.227174 173.309184c0 45.596478 37.158295 82.690304 82.851986 82.690304l608.567359-0.384763c45.635363-0.099261 82.758865-37.290301 82.758865-82.921571l-0.064468-176.413895C893.475759 638.739543 878.98779 624.285343 861.134167 624.285343L861.134167 624.285343zM765.056971 397.908522 247.619122 397.908522c-17.848507 0-32.342616-14.487969-32.342616-32.340569 0-17.853623 14.494109-32.341592 32.342616-32.341592l517.437849 0c17.883299 0 32.337499 14.487969 32.337499 32.341592C797.393447 383.420553 782.939247 397.908522 765.056971 397.908522L765.056971 397.908522zM765.056971 397.908522" /></svg>